<?xml version="1.0" standalone="no"?>
<!DOCTYPE svg PUBLIC "-//W3C//DTD SVG 20010904//EN"
 "http://www.w3.org/TR/2001/REC-SVG-20010904/DTD/svg10.dtd">
<svg version="1.0" xmlns="http://www.w3.org/2000/svg"
 width="300.000000pt" height="300.000000pt" viewBox="0 0 300.000000 300.000000"
 preserveAspectRatio="xMidYMid meet">
<metadata>
Created by potrace 1.10, written by Peter Selinger 2001-2011
</metadata>
<g transform="translate(0.000000,300.000000) scale(0.100000,-0.100000)"
fill="#000000" stroke="none">
<path d="M1446 2798 c-26 -24 -236 -334 -236 -349 0 -5 -4 -9 -10 -9 -5 0 -10
7 -10 16 0 38 -75 156 -134 212 -107 99 -214 142 -356 142 -284 0 -510 -229
-510 -515 0 -95 19 -167 65 -250 33 -59 110 -141 172 -184 84 -57 264 -95 346
-73 20 6 37 8 37 4 0 -3 -20 -44 -44 -91 -78 -152 -152 -359 -168 -469 -2 -19
-16 -28 -70 -46 -78 -27 -114 -50 -186 -120 -99 -95 -152 -221 -152 -362 0
-235 151 -432 384 -499 124 -36 297 -7 411 69 l51 34 78 -38 c236 -115 536
-115 772 0 l78 38 51 -34 c73 -49 157 -76 250 -82 102 -5 176 10 267 55 211
106 323 356 263 588 -42 160 -174 301 -331 354 -47 15 -60 24 -62 43 -15 109
-94 326 -173 478 -21 42 -39 79 -39 82 0 4 17 2 37 -4 51 -14 172 -2 241 24
160 59 285 195 326 353 85 323 -162 645 -493 645 -139 0 -254 -46 -356 -141
-60 -57 -135 -174 -135 -213 0 -9 -4 -16 -10 -16 -5 0 -10 4 -10 9 0 15 -210
325 -236 349 -14 12 -38 22 -54 22 -16 0 -40 -10 -54 -22z m-616 -45 c129 -36
241 -126 300 -243 67 -132 70 -130 215 85 129 191 151 210 193 165 10 -11 59
-80 108 -153 96 -143 131 -187 150 -187 18 0 60 54 83 105 25 57 126 156 191
189 62 31 144 56 183 56 37 0 31 -9 -9 -15 -100 -14 -189 -58 -267 -134 -42
-40 -107 -136 -113 -166 -31 -148 -31 -200 -4 -286 33 -109 97 -191 199 -257
208 -134 485 -71 621 140 54 82 74 166 68 275 -9 153 -79 270 -217 362 -46 31
-45 30 -39 37 11 11 69 -27 132 -87 96 -90 145 -200 146 -330 1 -146 -39 -247
-134 -344 -95 -97 -206 -141 -360 -143 -125 -1 -130 -18 -55 -177 63 -133 114
-274 134 -367 15 -71 43 -118 73 -118 7 0 42 -13 77 -29 72 -33 165 -120 208
-193 74 -127 76 -322 4 -463 -32 -65 -133 -161 -203 -195 -77 -38 -104 -43
-229 -44 -108 0 -174 18 -250 69 -55 38 -77 40 -131 12 -124 -63 -268 -97
-409 -97 -137 0 -216 20 -436 112 -23 10 -36 6 -101 -30 -200 -110 -415 -93
-569 43 -51 45 -97 107 -123 167 -60 135 -50 285 28 437 41 79 159 174 257
206 61 21 85 51 94 118 11 80 59 211 137 377 75 158 71 169 -58 172 -160 3
-277 50 -368 149 -86 92 -127 199 -127 326 0 90 9 130 49 211 99 205 328 307
552 245z m1585 3 c40 -8 65 -19 65 -28 0 -6 -8 -7 -17 -3 -10 4 -52 14 -93 22
-41 8 -77 17 -80 20 -5 5 82 -3 125 -11z m25 -62 c288 -113 370 -466 160 -688
-199 -211 -559 -154 -681 109 -114 243 12 517 274 590 66 19 186 14 247 -11z"/>
<path d="M595 2745 c-221 -72 -346 -233 -347 -447 0 -169 72 -296 225 -392 31
-20 57 -34 57 -30 0 4 6 2 13 -4 17 -14 110 -32 165 -32 139 0 288 83 371 205
124 182 98 420 -63 580 -75 74 -139 107 -240 125 -76 13 -130 11 -181 -5z
m208 -40 c80 -21 125 -46 189 -104 213 -195 156 -559 -106 -682 -261 -122
-550 31 -599 317 -50 289 230 544 516 469z"/>
<path d="M680 2520 c-8 -5 -47 -98 -86 -207 -62 -171 -70 -201 -59 -218 7 -11
24 -21 39 -23 24 -3 30 2 49 47 l21 51 62 0 c59 0 62 -1 69 -27 10 -44 34 -73
58 -73 27 0 47 17 47 39 0 26 -132 385 -148 404 -17 19 -30 21 -52 7z m59
-105 c12 -31 21 -60 21 -65 0 -5 6 -24 14 -42 42 -99 69 -193 50 -175 -5 5 -8
11 -6 13 1 3 -11 17 -29 31 -26 22 -40 26 -91 25 -60 -1 -80 -12 -108 -62 -5
-8 -11 -12 -15 -9 -3 4 15 63 40 131 25 69 45 128 45 131 0 19 33 77 44 77 8
0 24 -24 35 -55z"/>
<path d="M675 2336 c-30 -30 -32 -65 -5 -94 26 -27 31 -27 64 -1 36 28 29 72
-16 107 -15 12 -21 10 -43 -12z m49 -48 c6 -26 4 -28 -23 -28 -20 0 -29 4 -26
13 24 67 27 72 34 57 5 -8 11 -27 15 -42z"/>
<path d="M932 2064 c-30 -31 -46 -51 -35 -46 17 10 54 48 82 85 24 31 7 17
-47 -39z"/>
<path d="M1463 2708 c-11 -13 -75 -105 -142 -206 -79 -120 -122 -196 -126
-220 -10 -66 -27 -146 -35 -162 -51 -106 -89 -155 -173 -221 -56 -44 -77 -69
-112 -134 -44 -81 -152 -319 -160 -352 -3 -10 -14 -49 -25 -88 -11 -38 -20
-74 -20 -80 0 -22 26 -46 55 -50 97 -17 147 -31 204 -57 61 -30 63 -30 80 -12
10 11 28 44 41 74 82 197 272 312 489 297 181 -12 351 -138 417 -308 9 -24 25
-52 34 -63 18 -18 20 -18 85 13 60 29 95 39 188 58 46 9 30 23 -20 17 -68 -8
-162 -40 -204 -68 l-36 -25 -13 42 c-22 73 -58 134 -120 200 -200 215 -540
215 -740 0 -63 -67 -100 -130 -119 -201 l-12 -42 -37 25 c-54 35 -148 65 -214
68 -36 1 -58 6 -58 13 0 22 49 182 80 258 16 42 60 137 97 212 65 130 70 137
133 183 118 86 191 208 212 356 10 67 16 79 146 277 76 114 139 208 142 208 3
0 66 -94 142 -208 130 -198 136 -210 146 -277 21 -148 94 -271 210 -354 62
-45 66 -51 139 -196 84 -167 131 -283 159 -395 11 -45 20 -66 22 -53 8 52 -75
279 -176 482 -58 117 -73 138 -117 171 -111 84 -185 194 -205 310 -20 113 -26
126 -116 265 -175 267 -197 290 -241 243z"/>
<path d="M1393 1455 c-84 -23 -142 -55 -204 -112 -63 -59 -101 -118 -124 -196
-23 -77 -19 -97 31 -176 46 -71 84 -182 84 -242 0 -66 124 -149 253 -169 127
-20 288 27 355 104 29 33 35 52 35 109 0 9 3 17 7 17 4 0 7 12 8 28 1 35 31
103 76 172 41 61 43 79 20 158 -38 130 -153 250 -280 292 -21 7 -41 13 -44 12
-3 0 -9 3 -15 7 -18 13 -149 11 -202 -4z m282 -60 c111 -53 205 -168 235 -288
12 -44 11 -45 -33 -110 -49 -72 -83 -162 -93 -249 -5 -45 -12 -60 -33 -76
-147 -108 -355 -108 -502 0 -21 16 -28 31 -33 76 -10 87 -44 177 -93 250 l-45
66 17 60 c36 130 137 239 268 287 81 30 232 23 312 -16z"/>
<path d="M1420 1313 c-41 -16 -50 -35 -50 -105 l0 -68 -68 0 c-95 0 -102 -9
-102 -128 0 -119 11 -132 105 -132 l65 0 0 -63 c0 -98 10 -107 126 -107 121 0
134 10 134 105 l0 65 65 0 c95 0 105 13 105 133 0 118 -7 127 -103 127 l-67 0
0 68 c0 93 -14 106 -119 109 -42 1 -83 0 -91 -4z m154 -46 c12 -9 20 -31 23
-63 7 -67 25 -94 66 -95 94 -2 107 -14 107 -99 0 -79 -7 -88 -75 -91 -68 -4
-94 -29 -97 -93 -3 -70 -22 -87 -98 -85 -79 3 -92 13 -98 82 -6 70 -23 87 -92
92 -28 2 -58 9 -65 15 -8 7 -13 35 -13 76 -1 82 17 104 83 104 32 0 51 6 65
20 14 14 20 33 20 65 0 65 23 85 98 85 33 0 66 -6 76 -13z"/>
<path d="M1462 1234 c-19 -13 -22 -24 -22 -79 0 -40 -5 -67 -12 -72 -7 -4 -39
-8 -71 -9 -70 -3 -87 -15 -87 -63 0 -51 14 -61 87 -61 74 0 83 -10 83 -92 0
-30 5 -59 12 -66 16 -16 83 -15 96 1 6 6 12 41 15 76 2 36 10 66 17 71 7 4 38
8 69 9 64 0 90 21 85 67 -4 44 -26 57 -94 58 -72 1 -80 9 -80 87 0 81 -42 112
-98 73z m78 -96 l0 -88 85 0 85 0 0 -40 0 -40 -85 0 -85 0 0 -85 0 -85 -40 0
-40 0 0 85 0 85 -85 0 -85 0 0 40 0 40 85 0 85 0 0 88 0 87 40 0 40 0 0 -87z"/>
<path d="M600 1149 c-25 -5 -53 -10 -64 -10 -10 0 -16 -3 -13 -6 4 -3 -16 -16
-43 -30 -88 -44 -220 -215 -220 -285 0 -10 -3 -18 -7 -18 -9 0 -8 -111 2 -185
17 -134 152 -289 296 -341 64 -23 77 -25 156 -25 248 1 446 204 454 466 5 137
-115 325 -248 394 -92 46 -206 61 -313 40z m246 -50 c197 -73 312 -276 270
-478 -37 -176 -170 -303 -352 -334 -274 -47 -523 206 -476 483 45 262 312 419
558 329z"/>
<path d="M496 898 c-8 -18 -42 -110 -76 -205 -51 -144 -60 -175 -50 -193 9
-16 19 -20 43 -18 27 3 34 9 48 48 l17 45 62 0 62 0 17 -45 c14 -39 21 -45 48
-48 24 -2 34 2 43 17 9 17 0 52 -51 194 -89 249 -83 237 -119 237 -26 0 -33
-6 -44 -32z m60 -29 c13 -22 106 -285 110 -314 3 -27 3 -28 -9 -11 -31 47 -45
58 -82 65 -60 11 -106 -3 -138 -41 l-28 -33 7 30 c4 17 18 59 32 95 13 36 31
88 39 115 27 90 51 123 69 94z"/>
<path d="M512 747 c-41 -49 -26 -107 27 -107 34 0 51 17 51 50 0 53 -51 90
-78 57z m41 -19 c2 -13 8 -31 12 -40 6 -15 2 -18 -25 -18 -27 0 -31 3 -25 18
4 9 10 27 12 40 3 12 9 22 13 22 4 0 10 -10 13 -22z"/>
<path d="M756 908 c-13 -18 -16 -56 -16 -208 0 -237 -4 -230 123 -230 107 0
149 16 185 70 32 47 27 118 -11 158 -23 24 -26 32 -18 59 11 39 -1 97 -26 125
-32 36 -69 48 -147 48 -66 0 -77 -3 -90 -22z m178 -29 c33 -15 56 -66 50 -108
-4 -25 2 -49 26 -96 35 -70 34 -98 -7 -137 -21 -20 -37 -23 -115 -27 -68 -2
-93 0 -99 10 -10 16 -12 329 -3 353 7 19 109 22 148 5z"/>
<path d="M825 850 c-31 -32 -33 -77 -4 -114 43 -55 128 -19 143 60 6 30 -44
77 -83 79 -21 1 -38 -6 -56 -25z m86 -20 c21 -12 25 -50 7 -68 -7 -7 -28 -12
-48 -12 l-35 0 3 45 c4 40 7 45 29 45 13 0 33 -5 44 -10z"/>
<path d="M825 665 c-58 -57 -8 -148 77 -140 66 7 107 39 107 85 0 50 -43 80
-114 80 -35 0 -51 -6 -70 -25z m140 -25 c19 -16 19 -44 -1 -60 -8 -8 -40 -15
-70 -16 l-54 -3 0 49 0 49 55 -3 c30 -2 62 -9 70 -16z"/>
<path d="M628 343 c18 -2 45 -2 60 0 15 2 0 4 -33 4 -33 0 -45 -2 -27 -4z"/>
<path d="M2200 1153 c-52 -10 -169 -74 -212 -115 -24 -24 -59 -65 -78 -92 -37
-55 -79 -194 -74 -246 8 -71 26 -143 52 -198 29 -65 125 -165 188 -197 21 -11
42 -24 45 -28 3 -5 8 -7 10 -6 2 2 25 -3 51 -10 68 -19 208 -10 281 18 109 42
215 149 258 258 33 86 37 228 10 307 -43 123 -134 225 -249 279 -53 25 -77 30
-160 32 -53 2 -108 1 -122 -2z m160 -34 c183 -29 321 -168 353 -355 38 -220
-122 -438 -350 -477 -173 -30 -363 67 -441 226 -137 278 42 580 363 616 6 0
39 -4 75 -10z"/>
<path d="M2203 909 c-22 -11 -54 -39 -70 -61 -25 -37 -28 -51 -31 -133 -4
-106 13 -156 70 -198 89 -66 188 -60 264 17 105 104 79 312 -46 376 -52 27
-132 26 -187 -1z m185 -41 c45 -27 62 -66 66 -151 6 -106 -22 -163 -94 -193
-41 -18 -109 -11 -153 14 -32 19 -67 79 -67 113 0 26 12 17 17 -12 7 -43 62
-95 113 -105 44 -9 58 -6 96 15 51 28 76 81 75 155 0 69 -11 96 -55 134 -49
43 -94 50 -148 23 -57 -28 -84 -73 -83 -134 1 -29 -3 -46 -9 -44 -14 5 -8 95
9 127 43 82 148 109 233 58z m-11 -63 c20 -22 23 -37 23 -101 0 -70 -2 -78
-29 -105 -23 -23 -38 -29 -71 -29 -78 0 -110 40 -110 137 1 96 38 137 120 129
32 -3 50 -11 67 -31z"/>
<path d="M2576 493 c-26 -34 -54 -59 -121 -109 -18 -13 -17 -13 10 0 33 15
120 97 136 127 16 30 5 22 -25 -18z"/>
<path d="M1188 583 c-9 -10 -19 -29 -23 -43 -4 -14 -21 -51 -37 -83 -17 -32
-28 -61 -25 -63 12 -12 80 109 92 164 8 38 8 38 46 11 65 -46 137 -64 259 -64
122 0 194 18 259 64 38 27 38 27 46 -11 9 -42 46 -116 74 -148 21 -23 20 -22
-2 25 -14 28 -30 69 -37 92 -18 59 -43 80 -78 66 -15 -6 -54 -23 -87 -36 -120
-50 -274 -43 -395 18 -59 30 -72 31 -92 8z"/>
<path d="M1745 419 c-33 -16 -49 -27 -35 -23 30 8 100 42 100 49 0 6 6 8 -65
-26z"/>
<path d="M1120 356 c25 -24 138 -67 217 -82 99 -19 242 -19 330 0 83 18 197
61 214 82 7 8 -12 4 -46 -11 -117 -52 -201 -69 -335 -69 -135 0 -218 17 -337
69 -32 14 -51 19 -43 11z"/>
<path d="M2178 2519 c-16 -9 -18 -30 -18 -217 0 -149 3 -211 12 -220 8 -8 48
-12 113 -12 113 0 152 15 180 69 27 54 14 134 -29 170 -11 10 -12 18 -4 42 22
63 -15 136 -82 163 -45 18 -145 21 -172 5z m190 -63 c23 -23 27 -34 25 -82 -2
-44 3 -64 23 -95 23 -37 31 -89 18 -124 -11 -28 -63 -46 -140 -50 -106 -4
-104 -9 -104 195 0 196 -2 192 94 186 46 -3 63 -9 84 -30z"/>
<path d="M2239 2448 c-23 -23 -30 -38 -28 -62 7 -76 85 -102 140 -47 16 16 29
40 29 53 0 30 -36 65 -78 78 -28 8 -35 5 -63 -22z m99 -36 c6 -9 12 -19 12
-24 0 -19 -42 -48 -70 -48 -29 0 -30 1 -30 48 l0 48 38 -4 c20 -2 43 -11 50
-20z"/>
<path d="M2241 2262 c-38 -38 -39 -70 -4 -112 25 -30 30 -32 80 -28 69 6 105
37 101 87 -4 43 -37 69 -100 77 -43 6 -49 4 -77 -24z m137 -24 c7 -7 12 -21
12 -33 0 -34 -20 -45 -82 -45 l-58 0 0 45 0 45 58 0 c32 0 63 -5 70 -12z"/>
<path d="M2520 2057 c-25 -23 -55 -48 -65 -55 -11 -7 -6 -6 10 2 26 12 118 96
105 96 -3 0 -25 -19 -50 -43z"/>
</g>
</svg>
