<?xml version="1.0" standalone="no"?>
<!DOCTYPE svg PUBLIC "-//W3C//DTD SVG 20010904//EN"
 "http://www.w3.org/TR/2001/REC-SVG-20010904/DTD/svg10.dtd">
<svg version="1.0" xmlns="http://www.w3.org/2000/svg"
 width="300.000000pt" height="300.000000pt" viewBox="0 0 300.000000 300.000000"
 preserveAspectRatio="xMidYMid meet">
<metadata>
Created by potrace 1.10, written by Peter Selinger 2001-2011
</metadata>
<g transform="translate(0.000000,300.000000) scale(0.100000,-0.100000)"
fill="#000000" stroke="none">
<path d="M843 2930 c-65 -14 -116 -45 -167 -100 -56 -63 -76 -124 -76 -231 l0
-78 -237 -3 c-228 -3 -239 -4 -269 -25 -68 -49 -65 7 -62 -1007 3 -905 3 -915
24 -943 11 -15 40 -38 65 -51 l44 -23 478 3 c262 2 477 3 477 3 0 -1 -36 -77
-79 -170 l-79 -170 -148 -5 c-133 -4 -149 -7 -152 -23 -9 -48 -36 -47 838 -47
874 0 847 -1 838 47 -3 16 -19 19 -152 23 l-148 5 -79 170 c-43 93 -79 169
-79 170 0 0 210 -1 467 -3 332 -2 480 0 510 9 46 12 86 49 102 92 8 19 11 317
11 929 0 993 3 950 -62 987 -25 15 -28 21 -28 74 0 32 -7 71 -15 87 -32 61
-21 60 -458 60 l-399 0 -34 -34 c-31 -31 -34 -39 -34 -95 l0 -61 -180 0 -180
0 0 93 c0 85 -3 100 -31 155 -35 70 -71 104 -149 141 -54 25 -60 26 -285 28
-126 1 -249 -2 -272 -7z m506 -76 c62 -18 133 -82 149 -135 6 -19 12 -98 14
-176 l4 -143 -33 0 -33 0 0 54 c0 39 -4 55 -15 60 -9 3 -50 -6 -92 -20 -94
-32 -227 -42 -304 -24 -73 17 -154 59 -211 110 -32 28 -55 40 -70 38 -22 -3
-23 -7 -26 -110 l-3 -108 -29 0 -30 0 0 143 c0 133 2 147 25 194 27 54 77 95
142 119 58 20 442 19 512 -2z m1449 -226 c17 -17 17 -519 0 -536 -9 -9 -92
-12 -311 -12 l-299 0 -72 -59 c-39 -32 -78 -66 -85 -75 -7 -9 -16 -16 -20 -16
-12 0 -2 682 10 696 16 19 758 21 777 2z m-1836 -208 c112 -38 249 -37 403 6
19 5 20 1 15 -123 -6 -143 -18 -178 -85 -245 -57 -56 -117 -81 -200 -82 -117
-1 -207 54 -263 159 -25 47 -27 59 -30 212 l-4 163 50 -34 c28 -18 79 -44 114
-56z m-361 -22 c1 -29 0 -79 -1 -110 -2 -52 1 -61 28 -88 24 -23 39 -30 71
-30 35 0 43 -4 56 -30 18 -34 18 -34 -50 -45 -75 -13 -155 -117 -155 -202 0
-19 -5 -23 -33 -23 -51 0 -148 -54 -202 -111 -53 -56 -90 -131 -105 -209 -15
-78 -13 -523 2 -538 9 -9 217 -12 874 -12 474 0 869 3 878 6 14 5 16 39 16
269 0 298 -8 343 -76 442 -56 82 -168 153 -242 153 -39 0 -48 10 -55 59 -10
79 -98 170 -164 171 -26 0 -28 7 -13 45 7 19 17 26 33 25 47 -4 65 1 91 26 25
26 26 31 26 140 l0 114 180 0 180 0 2 -282 3 -282 26 -15 c38 -21 64 -9 156
69 l83 70 291 0 c394 0 383 -8 377 263 -2 95 1 146 7 144 7 -3 11 -279 13
-795 l2 -792 -1400 0 -1400 0 0 785 0 786 25 24 24 25 226 0 225 0 1 -52z
m129 -118 c0 -41 -3 -50 -18 -50 -27 0 -42 20 -42 55 0 38 6 45 37 45 21 0 23
-4 23 -50z m778 38 c29 -29 2 -88 -39 -88 -16 0 -19 7 -19 50 0 46 2 50 23 50
13 0 28 -5 35 -12z m-681 -300 c14 -13 23 -33 23 -50 0 -26 -2 -28 -20 -18
-22 12 -77 -10 -86 -35 -3 -7 -24 -16 -47 -20 -23 -4 -50 -9 -59 -11 -25 -7
-23 29 4 77 39 70 139 101 185 57z m652 -6 c27 -20 54 -61 66 -101 7 -23 6
-24 -41 -18 -26 3 -53 11 -58 19 -21 28 -74 50 -96 38 -18 -10 -19 -8 -13 22
9 53 31 71 77 65 22 -3 51 -14 65 -25z m-513 -84 c67 -31 189 -31 257 0 l47
21 0 -32 c0 -28 -11 -41 -81 -101 -45 -38 -88 -69 -94 -70 -7 0 -51 31 -99 69
-76 62 -86 74 -86 103 0 17 2 32 4 32 2 0 25 -10 52 -22z m-96 -19 c0 -17 -4
-20 -24 -15 -52 13 -32 -15 69 -101 58 -48 105 -90 105 -94 0 -11 -93 -70
-100 -62 -4 4 -24 49 -45 98 -58 140 -64 149 -81 134 -10 -8 -18 -9 -25 -2
-13 13 5 28 57 46 21 8 40 15 42 16 1 0 2 -8 2 -20z m468 13 c9 -5 30 -15 46
-23 16 -8 31 -20 34 -26 6 -20 -23 -15 -43 7 -12 14 -25 18 -41 14 -20 -5 -24
-2 -24 15 0 23 3 25 28 13z m-18 -160 c-28 -61 -50 -116 -50 -122 0 -5 -3 -10
-7 -10 -11 0 -103 65 -100 71 2 7 201 177 204 174 1 0 -20 -51 -47 -113z
m-710 94 c0 -7 -7 -19 -15 -26 -20 -16 -38 -1 -29 23 7 20 44 23 44 3z m987 3
c13 -13 6 -39 -11 -39 -14 0 -37 35 -29 44 10 9 28 7 40 -5z m-687 -382 c139
-326 163 -377 179 -377 21 1 46 51 182 370 82 195 152 356 153 358 2 2 31 0
65 -4 l61 -7 0 -93 c0 -87 -1 -93 -22 -99 -13 -4 -38 -18 -56 -32 -148 -111
-26 -352 155 -304 106 29 158 158 104 258 -13 26 -67 68 -98 78 -22 6 -23 12
-23 96 0 100 -3 98 78 74 78 -23 144 -82 184 -162 l33 -67 3 -248 3 -248 -821
0 -822 0 4 243 3 242 29 62 c43 95 124 163 219 187 26 6 27 5 27 -28 0 -30 -5
-37 -34 -51 -20 -10 -41 -30 -49 -48 -13 -29 -37 -235 -37 -322 0 -49 30 -77
78 -73 34 3 37 6 37 33 0 24 -5 31 -24 33 -23 4 -23 5 -17 85 18 225 21 237
75 237 45 0 58 -25 65 -125 4 -49 9 -114 13 -142 5 -49 4 -53 -15 -53 -27 0
-44 -28 -31 -52 15 -27 70 -24 98 6 l22 24 -12 162 c-13 173 -26 212 -77 235
-18 8 -22 18 -22 52 l0 42 43 4 c105 10 81 43 247 -346z m241 142 c30 -22 60
-44 68 -48 11 -7 0 -42 -57 -177 l-71 -169 -16 40 c-10 22 -42 98 -72 170 -30
71 -51 131 -45 133 5 1 36 23 68 47 33 25 62 45 65 45 3 0 30 -18 60 -41z
m502 -88 c86 -83 -10 -220 -118 -168 -69 33 -83 117 -27 169 47 45 98 44 145
-1z m1247 -848 c0 -72 -3 -85 -24 -110 l-24 -28 -1352 0 -1352 0 -24 28 c-21
25 -24 38 -24 110 l0 82 1400 0 1400 0 0 -82z m-1017 -379 c42 -92 77 -168 77
-170 0 -2 -207 -4 -460 -4 -253 0 -460 1 -460 3 0 5 134 298 148 323 10 18 25
19 314 17 l303 -2 78 -167z"/>
<path d="M2299 2519 l3 -51 -51 3 -51 4 0 -112 0 -113 51 0 52 0 -5 -50 -5
-50 113 0 114 0 0 50 0 50 50 0 50 0 0 113 0 112 -50 -3 -50 -4 0 51 0 51
-112 0 -113 0 4 -51z m151 -70 l0 -52 50 5 50 5 0 -43 0 -44 -50 0 -50 0 0
-50 0 -50 -44 0 -43 0 5 50 5 50 -54 0 -54 0 3 43 4 42 50 -4 51 -3 -5 51 -5
51 43 0 44 0 0 -51z"/>
<path d="M2266 1727 c-10 -7 -17 -22 -14 -33 3 -18 15 -19 252 -22 241 -2 276
1 276 29 0 4 -7 15 -16 23 -13 14 -50 16 -248 16 -176 0 -237 -3 -250 -13z"/>
<path d="M2259 1484 c-9 -11 -10 -20 -2 -32 9 -15 39 -17 254 -20 218 -2 245
-1 256 14 9 12 9 22 2 35 -9 18 -26 19 -253 19 -210 0 -245 -2 -257 -16z"/>
<path d="M2257 1253 c-14 -13 -7 -43 12 -53 12 -6 110 -10 250 -10 195 0 232
2 245 16 19 19 20 26 4 42 -13 13 -499 18 -511 5z"/>
<path d="M1526 1519 c-19 -15 -26 -30 -26 -55 0 -47 13 -69 50 -84 89 -37 158
88 78 144 -31 22 -70 20 -102 -5z m72 -62 c2 -12 -3 -17 -17 -17 -12 0 -21 6
-21 13 0 31 32 34 38 4z"/>
</g>
</svg>
