<?xml version="1.0" standalone="no"?>
<!DOCTYPE svg PUBLIC "-//W3C//DTD SVG 20010904//EN"
 "http://www.w3.org/TR/2001/REC-SVG-20010904/DTD/svg10.dtd">
<svg version="1.0" xmlns="http://www.w3.org/2000/svg"
 width="300.000000pt" height="300.000000pt" viewBox="0 0 300.000000 300.000000"
 preserveAspectRatio="xMidYMid meet">
<metadata>
Created by potrace 1.10, written by Peter Selinger 2001-2011
</metadata>
<g transform="translate(0.000000,300.000000) scale(0.100000,-0.100000)"
fill="#000000" stroke="none">
<path d="M1240 2975 c-296 -51 -552 -181 -773 -395 -134 -129 -218 -240 -296
-390 -96 -187 -147 -362 -158 -547 -10 -152 10 -112 48 99 54 305 191 569 403
782 229 230 483 359 820 417 65 11 132 26 150 34 30 13 28 13 -44 13 -41 0
-109 -6 -150 -13z"/>
<path d="M1566 2975 c18 -8 85 -23 150 -34 228 -40 403 -105 574 -216 348
-225 575 -572 649 -992 12 -67 28 -139 36 -160 15 -37 15 -35 11 62 -10 234
-94 475 -244 705 -75 113 -289 327 -402 402 -230 150 -471 234 -705 244 -94 4
-98 3 -69 -11z"/>
<path d="M1376 2859 c-533 -47 -1000 -419 -1171 -932 -47 -143 -65 -257 -65
-423 0 -223 39 -402 130 -589 73 -151 184 -305 220 -305 27 0 56 41 79 111 12
36 43 103 69 147 101 176 236 304 422 401 136 71 137 77 33 184 -57 59 -90
103 -117 157 -159 326 -7 705 332 822 56 19 87 23 192 23 105 0 136 -4 192
-23 278 -96 444 -388 384 -672 -24 -117 -76 -210 -169 -306 -101 -106 -100
-115 15 -174 167 -86 269 -171 368 -302 60 -80 127 -206 150 -285 15 -48 43
-83 67 -83 42 0 175 191 243 347 76 177 110 344 110 544 0 363 -128 680 -380
943 -289 300 -692 452 -1104 415z m355 -54 c549 -102 974 -528 1075 -1080 23
-125 16 -395 -14 -515 -50 -207 -126 -363 -258 -537 -32 -42 -44 -45 -44 -12
0 9 -17 60 -39 112 -97 238 -264 418 -494 532 l-108 53 36 22 c130 81 245 311
245 495 0 233 -144 464 -351 564 -106 50 -160 63 -279 63 -119 0 -173 -13
-279 -63 -64 -31 -101 -58 -161 -117 -193 -192 -243 -472 -127 -717 39 -82
121 -184 178 -222 l41 -27 -89 -41 c-173 -81 -320 -209 -421 -364 -58 -88
-131 -249 -132 -288 0 -32 -12 -29 -47 14 -121 154 -205 328 -255 533 -30 120
-37 390 -14 515 100 544 510 964 1051 1075 118 24 368 26 486 5z"/>
<path d="M1360 2351 c-90 -29 -141 -60 -207 -127 -177 -176 -197 -441 -48
-643 205 -278 617 -264 810 28 56 85 78 172 73 294 -3 92 -7 109 -39 177 -64
133 -173 229 -307 270 -82 25 -205 26 -282 1z m334 -64 c140 -70 231 -193 256
-347 38 -239 -132 -470 -378 -512 -144 -24 -295 26 -395 131 -66 69 -104 140
-124 235 -39 186 60 391 235 484 82 44 121 52 234 48 89 -3 105 -6 172 -39z"/>
<path d="M2966 1398 c-8 -35 -25 -112 -36 -173 -56 -291 -188 -542 -395 -750
-125 -125 -245 -211 -400 -286 -134 -65 -245 -100 -412 -130 -62 -11 -130 -27
-150 -35 -37 -14 -34 -14 62 -10 234 10 475 94 705 244 113 75 327 289 402
402 108 166 187 351 223 525 17 80 33 275 23 275 -3 0 -13 -28 -22 -62z"/>
<path d="M14 1360 c11 -231 95 -473 244 -700 75 -113 289 -327 402 -402 230
-150 471 -234 705 -244 96 -4 99 -4 62 10 -20 8 -88 24 -150 35 -169 30 -279
65 -412 130 -260 128 -471 319 -618 563 -90 149 -159 340 -191 530 -9 54 -23
114 -32 135 -14 37 -14 35 -10 -57z"/>
<path d="M1358 1270 c-77 -14 -159 -40 -235 -75 -248 -114 -442 -357 -498
-625 -19 -92 -11 -110 89 -183 147 -107 334 -188 529 -228 132 -27 349 -30
487 -5 195 35 404 123 556 233 90 66 106 92 94 153 -39 198 -123 354 -266 491
-170 162 -350 238 -584 244 -69 2 -146 0 -172 -5z m293 -45 c353 -62 634 -346
693 -701 l7 -40 -88 -63 c-145 -103 -302 -173 -488 -217 -115 -27 -435 -27
-550 0 -109 25 -235 71 -325 116 -87 44 -250 157 -250 174 0 6 7 40 15 76 68
290 276 523 555 622 131 47 287 59 431 33z"/>
</g>
</svg>
