<?xml version="1.0" standalone="no"?>
<!DOCTYPE svg PUBLIC "-//W3C//DTD SVG 20010904//EN"
 "http://www.w3.org/TR/2001/REC-SVG-20010904/DTD/svg10.dtd">
<svg version="1.0" xmlns="http://www.w3.org/2000/svg"
 width="300.000000pt" height="300.000000pt" viewBox="0 0 300.000000 300.000000"
 preserveAspectRatio="xMidYMid meet">
<metadata>
Created by potrace 1.10, written by Peter Selinger 2001-2011
</metadata>
<g transform="translate(0.000000,300.000000) scale(0.100000,-0.100000)"
fill="#000000" stroke="none">
<path d="M486 2894 c-14 -14 -16 -76 -16 -539 l0 -523 -102 -4 c-117 -5 -163
-22 -216 -82 -62 -71 -62 -73 -62 -786 0 -735 -2 -719 75 -795 79 -80 17 -76
1171 -73 l1019 3 41 22 c55 30 109 94 122 146 6 23 97 355 201 737 l191 696
-15 58 c-17 66 -37 97 -94 149 -60 54 -117 67 -303 67 l-158 0 0 363 c0 269
-3 366 -12 375 -7 7 -43 12 -92 12 l-81 0 3 74 c6 129 97 116 -847 116 -723 0
-811 -2 -825 -16z m289 -36 c3 -3 -38 -6 -93 -6 -149 0 -158 -10 -157 -169 0
-56 -3 -99 -8 -94 -4 4 -8 63 -9 131 -2 155 -6 151 148 147 62 -1 116 -5 119
-9z m261 1 c7 -12 -107 -11 -126 1 -10 7 5 10 53 9 37 -1 70 -6 73 -10z m244
1 c0 -9 -109 -10 -115 -1 -2 4 23 7 56 8 32 0 59 -3 59 -7z m150 -2 c0 -4 -13
-8 -29 -8 -17 0 -32 4 -35 8 -3 5 10 9 29 9 19 0 35 -4 35 -9z m350 0 c0 -11
-108 -10 -114 0 -3 5 22 8 54 8 33 -1 60 -4 60 -8z m322 1 c15 -8 18 -22 17
-70 -1 -50 2 -64 21 -84 13 -14 34 -25 47 -25 29 0 30 -15 1 -17 -12 -1 -32
-12 -44 -25 -23 -23 -23 -25 -27 -375 -2 -194 -6 -356 -10 -359 -4 -4 -7 195
-7 442 0 422 -1 450 -18 474 -11 14 -29 26 -41 28 -12 2 -19 6 -17 10 7 11 59
11 78 1z m-42 -659 l0 -610 -458 0 -457 0 -120 120 -120 120 -172 0 -173 0 0
490 0 490 750 0 750 0 0 -610z m240 440 c3 -19 3 -48 -1 -65 l-7 -30 -1 31
c-1 35 -35 84 -57 84 -8 0 -12 5 -9 11 4 5 21 9 38 7 28 -3 32 -7 37 -38z
m-50 -530 l0 -520 -47 0 -48 0 2 517 c2 285 3 519 3 521 0 1 20 2 45 2 l45 0
0 -520z m-1725 213 c1 -131 -2 -249 -6 -263 -4 -14 -8 96 -8 244 -1 148 2 267
5 263 4 -3 7 -113 9 -244z m1772 -85 c-2 -24 -4 -5 -4 42 0 47 2 66 4 43 2
-24 2 -62 0 -85z m-1772 -304 c1 -93 2 -97 28 -120 27 -23 34 -24 185 -24
l157 0 95 -95 c149 -150 87 -136 597 -139 254 -2 450 1 466 7 36 12 47 35 47
96 0 66 16 66 19 1 2 -63 17 -88 59 -100 38 -10 69 -1 94 27 15 17 18 46 19
233 1 143 4 207 10 191 5 -13 7 -26 5 -29 -3 -2 8 -15 23 -28 26 -22 37 -23
187 -27 165 -3 183 -6 231 -30 52 -27 97 -94 114 -166 8 -37 5 -51 -81 -361
-28 -102 -67 -243 -86 -315 -38 -143 -72 -262 -81 -285 -4 -8 -6 -18 -5 -21 1
-4 -3 -22 -9 -40 -12 -41 -35 -127 -87 -321 -42 -159 -63 -196 -131 -233 -35
-20 -57 -20 -1051 -22 -1116 -3 -1074 -5 -1138 58 -61 59 -61 59 -61 764 -1
352 3 657 8 678 14 58 51 105 105 132 41 20 65 25 131 25 72 0 83 3 108 25 26
25 27 30 27 120 0 52 3 95 8 95 4 0 7 -43 7 -96z m1595 -92 c0 -13 -4 -20 -10
-17 -5 3 -10 21 -10 38 0 24 3 28 10 17 5 -8 10 -25 10 -38z m-5 -71 c0 -55
-11 -60 -13 -6 -1 25 1 45 5 45 5 0 8 -18 8 -39z"/>
<path d="M743 2680 c0 -41 2 -58 4 -37 2 20 2 54 0 75 -2 20 -4 3 -4 -38z"/>
<path d="M954 2701 c-80 -37 -121 -127 -112 -246 3 -37 15 -82 27 -105 39 -76
27 -95 -64 -102 -62 -4 -99 -23 -127 -63 -7 -12 -15 -61 -18 -118 l-5 -97 48
0 47 0 0 79 c0 97 10 111 81 111 61 0 104 21 129 62 17 29 23 31 73 32 50 1
55 -1 67 -27 18 -41 66 -67 123 -67 81 0 87 -7 87 -105 l0 -85 50 0 50 0 0 78
c0 137 -54 202 -168 202 -46 0 -54 3 -63 24 -10 20 -7 33 15 77 22 44 26 66
26 133 -1 120 -36 184 -122 221 -49 20 -94 19 -144 -4z m106 -29 c0 -5 -13 -9
-30 -10 -16 0 -30 4 -30 9 0 5 14 9 30 9 17 0 30 -4 30 -8z m-96 -30 c-18 -15
-40 -39 -49 -54 -23 -37 -37 -36 -19 2 16 32 69 80 87 80 7 0 -2 -13 -19 -28z
m184 -22 c32 -48 27 -61 -8 -18 -17 20 -39 40 -50 43 -31 10 -24 24 8 16 15
-4 37 -22 50 -41z m-60 -13 c31 -25 44 -70 40 -138 -4 -76 -27 -113 -79 -124
-32 -7 -83 16 -99 44 -13 26 -13 167 1 192 22 42 100 57 137 26z m-188 -126
c0 -92 20 -131 86 -163 52 -26 133 7 163 67 7 16 14 50 14 78 0 30 3 44 8 35
11 -18 2 -100 -17 -147 -32 -82 1 -128 102 -142 84 -11 104 -35 102 -118 -2
-65 -2 -65 -5 -13 -6 78 -37 109 -116 118 -54 6 -67 12 -107 50 -36 33 -53 43
-85 44 -62 3 -63 3 -113 -44 -39 -37 -54 -45 -92 -47 -87 -5 -130 -49 -130
-134 0 -25 -4 -44 -9 -41 -14 9 -4 114 13 142 20 30 54 44 106 44 27 0 48 8
69 26 36 30 40 64 15 134 -17 47 -26 170 -12 170 4 0 8 -27 8 -59z"/>
<path d="M1516 2704 c-20 -20 -23 -233 -4 -252 9 -9 73 -12 225 -12 200 0 213
1 223 19 5 11 10 67 10 124 0 145 13 137 -238 137 -169 0 -203 -2 -216 -16z
m412 -118 c2 -54 -1 -93 -8 -100 -10 -10 -219 -10 -229 0 -2 2 36 4 85 4 86 0
92 1 115 28 30 31 34 64 14 103 -20 37 -41 42 -178 42 -156 -1 -177 -14 -167
-108 2 -20 37 -65 49 -63 3 0 21 0 40 -1 52 -2 29 -13 -26 -13 -91 0 -83 -9
-83 96 0 66 4 96 13 99 6 3 93 5 192 4 l180 -2 3 -89z m-48 -6 l0 -50 -145 0
-145 0 0 50 0 50 145 0 145 0 0 -50z"/>
<path d="M744 2405 c0 -60 1 -84 3 -52 2 32 2 81 0 110 -2 29 -3 3 -3 -58z"/>
<path d="M1500 2298 l0 -48 235 0 235 0 0 48 0 47 -235 0 -235 0 0 -47z m290
3 c0 -13 -42 -17 -130 -11 l-75 5 85 5 c47 4 93 7 103 8 9 1 17 -2 17 -7z"/>
<path d="M1500 2110 l0 -50 235 0 235 0 0 50 0 50 -235 0 -235 0 0 -50z m406
-2 c3 -4 -15 -6 -40 -5 -25 0 -46 4 -46 8 0 8 77 5 86 -3z"/>
<path d="M1500 1923 l0 -48 235 0 235 0 0 48 0 47 -235 0 -235 0 0 -47z m407
0 c-10 -10 -336 -12 -342 -3 -3 4 75 8 172 9 98 1 174 -2 170 -6z"/>
<path d="M1500 1735 l0 -45 235 0 235 0 0 45 0 45 -235 0 -235 0 0 -45z m160
-3 c0 -8 -79 -6 -88 3 -3 3 16 5 41 5 26 0 47 -4 47 -8z m258 3 c-9 -9 -239
-12 -244 -3 -3 4 52 8 122 8 70 0 125 -2 122 -5z"/>
<path d="M2445 1902 c-127 -4 -125 -2 -125 -173 l0 -137 31 -26 c17 -14 36
-26 43 -26 7 0 26 -15 43 -32 62 -66 62 -63 64 -429 1 -183 4 -339 6 -346 18
-47 23 24 23 330 0 339 0 342 -24 393 -26 55 -76 102 -128 120 l-33 11 -3 146
-3 147 148 0 c82 0 165 -5 186 -11 71 -19 137 -98 137 -163 0 -14 -36 -157
-81 -318 -162 -590 -180 -659 -177 -676 4 -22 88 215 88 250 0 7 9 42 19 78
11 36 27 90 35 120 14 52 46 166 116 411 16 59 30 121 30 138 0 63 -68 153
-135 180 -34 13 -125 17 -260 13z"/>
<path d="M429 1760 c-131 -4 -160 -8 -185 -24 -39 -26 -47 -35 -66 -76 -16
-32 -17 -97 -18 -690 0 -414 4 -668 10 -691 12 -42 47 -80 94 -103 30 -14 147
-16 1042 -18 787 -2 1017 0 1045 10 44 15 87 59 102 104 16 47 23 1070 7 1127
-13 51 -68 107 -117 120 -25 7 -242 11 -632 11 l-593 0 -118 115 c-101 99
-122 115 -151 116 -131 4 -286 3 -420 -1z m556 -140 l120 -120 616 0 616 0 34
-23 c71 -47 69 -30 69 -630 0 -589 1 -579 -59 -630 l-33 -27 -1031 0 c-1006 0
-1033 1 -1064 20 -66 40 -64 7 -61 764 l3 685 30 31 c16 17 43 34 60 39 16 5
154 9 305 10 l275 1 120 -120z"/>
<path d="M1098 1349 c-16 -9 -18 -27 -18 -139 l0 -130 -121 0 c-66 0 -129 -5
-140 -10 -18 -10 -19 -23 -19 -223 0 -152 3 -216 12 -225 8 -8 54 -12 140 -12
l128 0 0 -128 c0 -86 4 -132 12 -140 9 -9 71 -12 219 -12 180 0 210 2 224 16
14 14 16 36 13 141 l-3 123 127 0 c102 0 130 3 142 16 14 13 16 47 16 218 0
184 -2 204 -18 219 -15 14 -41 17 -143 17 l-124 0 3 115 c3 94 1 121 -12 140
l-16 25 -203 0 c-118 0 -209 -5 -219 -11z m416 -35 c3 -9 6 -65 6 -125 0 -137
0 -137 150 -140 58 -1 111 -6 118 -11 9 -8 12 -57 12 -182 0 -94 -3 -181 -6
-193 -6 -22 -11 -23 -119 -23 -156 0 -157 -1 -156 -144 1 -67 -3 -114 -10
-122 -15 -18 -384 -20 -394 -3 -4 6 -6 58 -6 116 2 97 0 108 -20 130 -21 21
-30 23 -136 23 -99 0 -115 2 -121 18 -8 21 -7 355 2 377 4 12 17 16 48 15 123
-5 185 0 205 18 18 15 21 30 22 132 2 76 6 117 14 122 7 4 96 8 198 8 161 0
188 -2 193 -16z"/>
<path d="M1193 1302 c-41 -6 -53 -38 -53 -139 0 -50 -4 -103 -10 -117 -9 -26
-11 -26 -119 -26 -155 0 -152 3 -152 -174 0 -179 -5 -173 150 -180 62 -3 116
-8 119 -11 3 -3 7 -56 8 -117 4 -153 3 -152 175 -155 126 -2 131 -2 155 22 22
23 24 31 24 134 0 95 2 112 18 119 9 5 63 9 119 9 144 1 143 0 144 177 0 130
-1 139 -22 157 -21 18 -95 25 -206 19 -44 -2 -53 20 -53 138 0 92 -2 100 -25
122 -23 22 -34 24 -138 24 -61 1 -122 0 -134 -2z m258 -159 c-2 -113 0 -124
20 -144 20 -20 29 -21 142 -18 l121 4 0 -143 1 -142 -132 0 c-162 0 -155 7
-151 -160 l3 -120 -142 0 -143 0 0 128 c0 86 -4 132 -12 140 -8 8 -54 12 -140
12 l-128 0 0 143 0 144 130 -1 c106 -1 132 2 140 14 5 8 10 72 10 143 l0 128
141 -3 141 -3 -1 -122z"/>
</g>
</svg>
